<svg width="90" height="90" viewBox="0 0 90 90" fill="none" xmlns="http://www.w3.org/2000/svg">
<rect width="90" height="90" rx="10" fill="#607D8B"/>
<path d="M45.0002 18C30.0904 18 18 30.3782 18 45.6482C18 57.8639 25.7364 68.2277 36.4644 71.8836C37.8138 72.1395 38.3092 71.2838 38.3092 70.5535C38.3092 69.8942 38.2841 67.7163 38.2725 65.406C30.761 67.0785 29.176 62.1439 29.176 62.1439C27.9478 58.9481 26.1781 58.0984 26.1781 58.0984C23.7284 56.3824 26.3628 56.4176 26.3628 56.4176C29.0741 56.6127 30.5017 59.2668 30.5017 59.2668C32.9099 63.4936 36.8181 62.2716 38.3588 61.5651C38.6012 59.7782 39.3009 58.5585 40.073 57.8681C34.0759 57.1689 27.7716 54.7982 27.7716 44.2042C27.7716 41.1856 28.8264 38.7192 30.5536 36.783C30.2732 36.0866 29.3491 33.2746 30.8151 29.4662C30.8151 29.4662 33.0824 28.7231 38.2421 32.3003C40.3959 31.6877 42.7056 31.3805 45.0002 31.3699C47.2948 31.3805 49.6064 31.6877 51.7641 32.3003C56.9176 28.7231 59.1817 29.4662 59.1817 29.4662C60.6514 33.2746 59.7268 36.0866 59.4464 36.783C61.1776 38.7192 62.2252 41.1856 62.2252 44.2042C62.2252 54.8234 55.9089 57.1616 49.8966 57.8461C50.865 58.7041 51.7279 60.3867 51.7279 62.9661C51.7279 66.6655 51.6966 69.6429 51.6966 70.5535C51.6966 71.2893 52.1826 72.1514 53.5512 71.8799C64.2734 68.2199 72 57.8598 72 45.6482C72 30.3782 59.9114 18 45.0002 18ZM28.1125 57.3855C28.053 57.5228 27.842 57.564 27.6497 57.4697C27.4539 57.3795 27.3439 57.1923 27.4074 57.0545C27.4655 56.913 27.677 56.8736 27.8724 56.9684C28.0686 57.0586 28.1804 57.2477 28.1125 57.3855ZM29.4406 58.599C29.3118 58.7212 29.0601 58.6645 28.8893 58.4712C28.7127 58.2785 28.6796 58.0207 28.8101 57.8967C28.9429 57.7744 29.1871 57.8316 29.3641 58.0244C29.5407 58.2194 29.5752 58.4754 29.4406 58.599ZM30.3517 60.1516C30.1863 60.2693 29.9158 60.1589 29.7486 59.9131C29.5831 59.6672 29.5831 59.3724 29.7521 59.2542C29.9198 59.1361 30.1863 59.2423 30.3557 59.4864C30.5207 59.7363 30.5207 60.0312 30.3517 60.1516ZM31.8926 61.9498C31.7446 62.1169 31.4294 62.072 31.1987 61.844C30.9626 61.621 30.8969 61.3047 31.0454 61.1376C31.1951 60.97 31.5121 61.0171 31.7446 61.2433C31.9789 61.4658 32.0505 61.7845 31.8926 61.9498ZM33.8841 62.5568C33.8188 62.7734 33.5153 62.8718 33.2094 62.7798C32.9041 62.685 32.7042 62.4314 32.7659 62.2125C32.8294 61.9946 33.1343 61.892 33.4424 61.9905C33.7473 62.0848 33.9476 62.3366 33.8841 62.5568ZM36.1505 62.8143C36.1581 63.0423 35.8988 63.2314 35.5778 63.2355C35.255 63.2428 34.9938 63.0583 34.9903 62.834C34.9903 62.6037 35.2438 62.4164 35.5666 62.4109C35.8876 62.4045 36.1505 62.5877 36.1505 62.8143ZM38.377 62.7269C38.4155 62.9494 38.1924 63.1779 37.8736 63.2388C37.5601 63.2974 37.27 63.16 37.2302 62.9394C37.1913 62.7113 37.4184 62.4829 37.7314 62.4238C38.0506 62.367 38.3363 62.5007 38.377 62.7269Z" fill="white"/>
</svg>
