<svg width="90" height="90" viewBox="0 0 90 90" fill="none" xmlns="http://www.w3.org/2000/svg">
<rect x="0.5" y="0.5" width="89" height="89" rx="9.5" fill="white" stroke="#C4C4C4"/>
<g clip-path="url(#clip0_371:35)">
<path d="M45.06 75.12C28.5 75.12 15 61.62 15 45.06C15 28.5 28.5 15 45.06 15C61.62 15 75.12 28.5 75.12 45.06C75.06 61.62 61.62 75.12 45.06 75.12ZM45.06 18.84C30.6 18.84 18.84 30.6 18.84 45.06C18.84 59.52 30.6 71.28 45.06 71.28C59.52 71.28 71.28 59.52 71.28 45.06C71.28 30.6 59.52 18.84 45.06 18.84V18.84Z" fill="#333333"/>
<path d="M48.54 30.1799C47.1 27.1799 46.2 24.2999 45.72 22.6199V43.9199C46.44 44.2199 46.98 44.8799 46.98 45.7199C46.98 46.7999 46.08 47.6999 45 47.6999C43.92 47.6999 43.02 46.7999 43.02 45.7199C43.02 44.8199 43.62 44.0999 44.4 43.8599V22.6199C43.92 24.2999 43.08 27.1799 41.58 30.1799C39.3 34.8599 36.42 38.9399 36.42 38.9399L38.28 64.0199C38.28 64.0199 40.02 65.9399 45.06 65.9399C50.1 65.9399 51.84 64.0199 51.84 64.0199L53.7 38.9399C53.7 38.9399 50.82 34.8599 48.54 30.1799V30.1799Z" fill="#333333"/>
</g>
<defs>
<clipPath id="clip0_371:35">
<rect width="60" height="60" fill="white" transform="translate(15 15)"/>
</clipPath>
</defs>
</svg>
