<svg width="90" height="90" viewBox="0 0 90 90" fill="none" xmlns="http://www.w3.org/2000/svg">
<rect width="90" height="90" rx="10" fill="#F9A825"/>
<path d="M26.0001 18.4C24.9923 18.4 24.0257 18.8004 23.3131 19.513C22.6004 20.2257 22.2001 21.1922 22.2001 22.2C22.2001 23.2078 22.6004 24.1744 23.3131 24.887C24.0257 25.5997 24.9923 26 26.0001 26C46.9875 26 64.0001 43.0126 64.0001 64C64.0001 65.0078 64.4004 65.9744 65.1131 66.687C65.8257 67.3997 66.7922 67.8 67.8001 67.8C68.8079 67.8 69.7744 67.3997 70.4871 66.687C71.1997 65.9744 71.6001 65.0078 71.6001 64C71.6001 38.8174 51.1827 18.4 26.0001 18.4Z" fill="white"/>
<path d="M22.2 41.2C22.2 40.1922 22.6004 39.2257 23.313 38.513C24.0257 37.8004 24.9922 37.4 26 37.4C33.0548 37.4 39.8206 40.2025 44.8091 45.191C49.7975 50.1795 52.6 56.9453 52.6 64C52.6 65.0079 52.1997 65.9744 51.487 66.687C50.7744 67.3997 49.8078 67.8 48.8 67.8C47.7922 67.8 46.8257 67.3997 46.113 66.687C45.4004 65.9744 45 65.0079 45 64C45 58.9609 42.9982 54.1282 39.4351 50.565C35.8719 47.0018 31.0391 45 26 45C24.9922 45 24.0257 44.5997 23.313 43.887C22.6004 43.1744 22.2 42.2078 22.2 41.2ZM18.4 64C18.4 61.9844 19.2007 60.0513 20.626 58.626C22.0513 57.2007 23.9844 56.4 26 56.4C28.0157 56.4 29.9488 57.2007 31.374 58.626C32.7993 60.0513 33.6 61.9844 33.6 64C33.6 66.0157 32.7993 67.9488 31.374 69.374C29.9488 70.7993 28.0157 71.6 26 71.6C23.9844 71.6 22.0513 70.7993 20.626 69.374C19.2007 67.9488 18.4 66.0157 18.4 64Z" fill="white"/>
</svg>
