<svg width="90" height="90" viewBox="0 0 90 90" fill="none" xmlns="http://www.w3.org/2000/svg">
<rect width="90" height="90" rx="10" fill="#55ACEE"/>
<g clip-path="url(#clip0_206:69)">
<path d="M74.34 26.8905C72.181 27.8474 69.8607 28.4942 67.4255 28.7851C69.9112 27.2959 71.82 24.9379 72.7189 22.1284C70.3928 23.5071 67.8163 24.5085 65.0741 25.0482C62.8779 22.7097 59.7491 21.2484 56.2866 21.2484C49.6377 21.2484 44.2473 26.6356 44.2473 33.2803C44.2473 34.2234 44.354 35.1417 44.5592 36.0223C34.5536 35.5206 25.6828 30.7304 19.745 23.4509C18.7088 25.2279 18.1151 27.2948 18.1151 29.4999C18.1151 33.6742 20.2406 37.3571 23.4709 39.5147C21.4973 39.4523 19.6411 38.911 18.0178 38.0098C18.017 38.06 18.017 38.1104 18.017 38.1611C18.017 43.9908 22.1668 48.854 27.6742 49.9592C26.6639 50.2342 25.6004 50.3811 24.5023 50.3811C23.7266 50.3811 22.9723 50.3058 22.2374 50.1653C23.7693 54.9457 28.2153 58.4243 33.4834 58.5215C29.3632 61.7485 24.1722 63.6721 18.5319 63.6721C17.5602 63.6721 16.6019 63.6152 15.66 63.5041C20.9878 66.9179 27.316 68.9097 34.1146 68.9097C56.2585 68.9097 68.3675 50.5755 68.3675 34.6756C68.3675 34.1539 68.3559 33.6349 68.3327 33.119C70.6847 31.4226 72.7259 29.3034 74.34 26.8905Z" fill="white"/>
</g>
<defs>
<clipPath id="clip0_206:69">
<rect width="58.68" height="47.88" fill="white" transform="translate(15.66 21.0601)"/>
</clipPath>
</defs>
</svg>
