<svg width="90" height="90" viewBox="0 0 90 90" fill="none" xmlns="http://www.w3.org/2000/svg">
<rect x="0.5" y="0.5" width="89" height="89" rx="9.5" fill="white" stroke="#C4C4C4"/>
<g clip-path="url(#clip0_371:22)">
<path d="M18.5973 71.4819H29.8736C30.4709 71.4819 31.0003 71.1493 31.3329 70.6855L62.3767 19.6775C62.7749 19.0145 62.311 18.2181 61.5146 18.2181H50.8356C50.3039 18.2181 49.8401 18.4829 49.5754 18.9489L18.0678 70.5543C17.8687 70.9525 18.1335 71.4819 18.5973 71.4819ZM57.4693 70.6855L72.128 47.1374C72.5918 46.4066 72.0624 45.479 71.2004 45.479H60.587C60.1888 45.479 59.7906 45.6781 59.5915 46.0107L44.5346 70.0905C44.1364 70.6878 44.6002 71.4842 45.331 71.4842H56.1435C56.6729 71.4819 57.2023 71.2172 57.4693 70.6855V70.6855Z" fill="#55ACEE"/>
</g>
<defs>
<clipPath id="clip0_371:22">
<rect width="54.3" height="54.3" fill="white" transform="translate(18 17.7)"/>
</clipPath>
</defs>
</svg>
